  0
SECTION
  2
HEADER
  9
$ACADVER
  1
AC1015
  9
$ACADMAINTVER
 70
     6
  9
$DWGCODEPAGE
  3
ANSI_936
  9
$INSBASE
 10
0.0
 20
0.0
 30
0.0
  9
$EXTMIN
 10
-34.6002061303
 20
-34.6002061303
 30
0.0
  9
$EXTMAX
 10
34.6002061303
 20
34.6002061303
 30
0.0
  9
$LIMMIN
 10
0.0
 20
0.0
  9
$LIMMAX
 10
420.0
 20
297.0
  9
$ORTHOMODE
 70
     0
  9
$REGENMODE
 70
     1
  9
$FILLMODE
 70
     1
  9
$QTEXTMODE
 70
     0
  9
$MIRRTEXT
 70
     1
  9
$LTSCALE
 40
1.0
  9
$ATTMODE
 70
     1
  9
$TEXTSIZE
 40
3.5
  9
$TRACEWID
 40
1.0
  9
$TEXTSTYLE
  7
Standard
  9
$CLAYER
  8
0
  9
$CELTYPE
  6
ByLayer
  9
$CECOLOR
 62
   256
  9
$CELTSCALE
 40
1.0
  9
$DISPSILH
 70
     0
  9
$DIMSCALE
 40
1.0
  9
$DIMASZ
 40
3.556
  9
$DIMEXO
 40
0.0
  9
$DIMDLI
 40
3.75
  9
$DIMRND
 40
0.0
  9
$DIMDLE
 40
0.0
  9
$DIMEXE
 40
1.0
  9
$DIMTP
 40
0.0
  9
$DIMTM
 40
0.0
  9
$DIMTXT
 40
3.5
  9
$DIMCEN
 40
2.5
  9
$DIMTSZ
 40
0.0
  9
$DIMTOL
 70
     0
  9
$DIMLIM
 70
     0
  9
$DIMTIH
 70
     1
  9
$DIMTOH
 70
     1
  9
$DIMSE1
 70
     0
  9
$DIMSE2
 70
     0
  9
$DIMTAD
 70
     1
  9
$DIMZIN
 70
     1
  9
$DIMBLK
  1

  9
$DIMASO
 70
     1
  9
$DIMSHO
 70
     1
  9
$DIMPOST
  1

  9
$DIMAPOST
  1

  9
$DIMALT
 70
     0
  9
$DIMALTD
 70
     3
  9
$DIMALTF
 40
0.0393700787
  9
$DIMLFAC
 40
1.0
  9
$DIMTOFL
 70
     1
  9
$DIMTVP
 40
0.0
  9
$DIMTIX
 70
     0
  9
$DIMSOXD
 70
     0
  9
$DIMSAH
 70
     0
  9
$DIMBLK1
  1

  9
$DIMBLK2
  1

  9
$DIMSTYLE
  2
ISO-25
  9
$DIMCLRD
 70
     0
  9
$DIMCLRE
 70
     0
  9
$DIMCLRT
 70
     0
  9
$DIMTFAC
 40
1.0
  9
$DIMGAP
 40
1.524
  9
$DIMJUST
 70
     0
  9
$DIMSD1
 70
     0
  9
$DIMSD2
 70
     0
  9
$DIMTOLJ
 70
     0
  9
$DIMTZIN
 70
     1
  9
$DIMALTZ
 70
     0
  9
$DIMALTTZ
 70
     0
  9
$DIMUPT
 70
     0
  9
$DIMDEC
 70
     2
  9
$DIMTDEC
 70
     2
  9
$DIMALTU
 70
     2
  9
$DIMALTTD
 70
     3
  9
$DIMTXSTY
  7
Standard
  9
$DIMAUNIT
 70
     0
  9
$DIMADEC
 70
     2
  9
$DIMALTRND
 40
0.0
  9
$DIMAZIN
 70
     0
  9
$DIMDSEP
 70
    44
  9
$DIMATFIT
 70
     3
  9
$DIMFRAC
 70
     0
  9
$DIMLDRBLK
  1

  9
$DIMLUNIT
 70
     2
  9
$DIMLWD
 70
    -2
  9
$DIMLWE
 70
    -2
  9
$DIMTMOVE
 70
     0
  9
$LUNITS
 70
     2
  9
$LUPREC
 70
     2
  9
$SKETCHINC
 40
1.0
  9
$FILLETRAD
 40
0.0
  9
$AUNITS
 70
     0
  9
$AUPREC
 70
     2
  9
$MENU
  1
.
  9
$ELEVATION
 40
0.0
  9
$PELEVATION
 40
0.0
  9
$THICKNESS
 40
0.0
  9
$LIMCHECK
 70
     0
  9
$CHAMFERA
 40
0.0
  9
$CHAMFERB
 40
0.0
  9
$CHAMFERC
 40
0.0
  9
$CHAMFERD
 40
0.0
  9
$SKPOLY
 70
     0
  9
$TDCREATE
 40
2461180.64122375
  9
$TDUCREATE
 40
2461180.307890417
  9
$TDUPDATE
 40
2461180.641261898
  9
$TDUUPDATE
 40
2461180.307928565
  9
$TDINDWG
 40
0.0000000116
  9
$TDUSRTIMER
 40
0.0000000116
  9
$USRTIMER
 70
     1
  9
$ANGBASE
 50
0.0
  9
$ANGDIR
 70
     0
  9
$PDMODE
 70
     0
  9
$PDSIZE
 40
-1.0
  9
$PLINEWID
 40
0.0
  9
$SPLFRAME
 70
     0
  9
$SPLINETYPE
 70
     6
  9
$SPLINESEGS
 70
     8
  9
$HANDSEED
  5
A1
  9
$SURFTAB1
 70
     6
  9
$SURFTAB2
 70
     6
  9
$SURFTYPE
 70
     6
  9
$SURFU
 70
     6
  9
$SURFV
 70
     6
  9
$UCSBASE
  2

  9
$UCSNAME
  2

  9
$UCSORG
 10
0.0
 20
0.0
 30
0.0
  9
$UCSXDIR
 10
1.0
 20
0.0
 30
0.0
  9
$UCSYDIR
 10
0.0
 20
1.0
 30
0.0
  9
$UCSORTHOREF
  2

  9
$UCSORTHOVIEW
 70
     0
  9
$UCSORGTOP
 10
0.0
 20
0.0
 30
0.0
  9
$UCSORGBOTTOM
 10
0.0
 20
0.0
 30
0.0
  9
$UCSORGLEFT
 10
0.0
 20
0.0
 30
0.0
  9
$UCSORGRIGHT
 10
0.0
 20
0.0
 30
0.0
  9
$UCSORGFRONT
 10
0.0
 20
0.0
 30
0.0
  9
$UCSORGBACK
 10
0.0
 20
0.0
 30
0.0
  9
$PUCSBASE
  2

  9
$PUCSNAME
  2

  9
$PUCSORG
 10
0.0
 20
0.0
 30
0.0
  9
$PUCSXDIR
 10
1.0
 20
0.0
 30
0.0
  9
$PUCSYDIR
 10
0.0
 20
1.0
 30
0.0
  9
$PUCSORTHOREF
  2

  9
$PUCSORTHOVIEW
 70
     0
  9
$PUCSORGTOP
 10
0.0
 20
0.0
 30
0.0
  9
$PUCSORGBOTTOM
 10
0.0
 20
0.0
 30
0.0
  9
$PUCSORGLEFT
 10
0.0
 20
0.0
 30
0.0
  9
$PUCSORGRIGHT
 10
0.0
 20
0.0
 30
0.0
  9
$PUCSORGFRONT
 10
0.0
 20
0.0
 30
0.0
  9
$PUCSORGBACK
 10
0.0
 20
0.0
 30
0.0
  9
$USERI1
 70
     0
  9
$USERI2
 70
     0
  9
$USERI3
 70
     0
  9
$USERI4
 70
     0
  9
$USERI5
 70
     0
  9
$USERR1
 40
0.0
  9
$USERR2
 40
0.0
  9
$USERR3
 40
0.0
  9
$USERR4
 40
0.0
  9
$USERR5
 40
0.0
  9
$WORLDVIEW
 70
     1
  9
$SHADEDGE
 70
     3
  9
$SHADEDIF
 70
    70
  9
$TILEMODE
 70
     1
  9
$MAXACTVP
 70
    64
  9
$PINSBASE
 10
0.0
 20
0.0
 30
0.0
  9
$PLIMCHECK
 70
     0
  9
$PEXTMIN
 10
1.0000000000E+20
 20
1.0000000000E+20
 30
1.0000000000E+20
  9
$PEXTMAX
 10
-1.0000000000E+20
 20
-1.0000000000E+20
 30
-1.0000000000E+20
  9
$PLIMMIN
 10
0.0
 20
0.0
  9
$PLIMMAX
 10
420.0
 20
297.0
  9
$UNITMODE
 70
     0
  9
$VISRETAIN
 70
     1
  9
$PLINEGEN
 70
     0
  9
$PSLTSCALE
 70
     1
  9
$TREEDEPTH
 70
  3020
  9
$CMLSTYLE
  2
Standard
  9
$CMLJUST
 70
     0
  9
$CMLSCALE
 40
20.0
  9
$PROXYGRAPHICS
 70
     1
  9
$MEASUREMENT
 70
     1
  9
$CELWEIGHT
370
    -1
  9
$ENDCAPS
280
     0
  9
$JOINSTYLE
280
     0
  9
$LWDISPLAY
290
     1
  9
$INSUNITS
 70
     4
  9
$HYPERLINKBASE
  1

  9
$STYLESHEET
  1

  9
$XEDIT
290
     1
  9
$CEPSNTYPE
380
     0
  9
$PSTYLEMODE
290
     1
  9
$FINGERPRINTGUID
  2
{53b93baa-b495-4d08-8347-1203e1f31c8b}
  9
$VERSIONGUID
  2
{FAEB1C32-E019-11D5-929B-00C0DF256EC4}
  9
$EXTNAMES
290
     1
  9
$PSVPSCALE
 40
0.0
  9
$OLESTARTUP
290
     0
  0
ENDSEC
  0
SECTION
  2
CLASSES
  0
CLASS
  1
ACDBDICTIONARYWDFLT
  2
AcDbDictionaryWithDefault
  3
ObjectDBX Classes
 90
        0
280
     0
281
     0
  0
CLASS
  1
VISUALSTYLE
  2
AcDbVisualStyle
  3
ObjectDBX Classes
 90
     4095
280
     0
281
     0
  0
CLASS
  1
MATERIAL
  2
AcDbMaterial
  3
ObjectDBX Classes
 90
     1153
280
     0
281
     0
  0
CLASS
  1
SCALE
  2
AcDbScale
  3
ObjectDBX Classes
 90
     1153
280
     0
281
     0
  0
CLASS
  1
TABLESTYLE
  2
AcDbTableStyle
  3
ObjectDBX Classes
 90
     4095
280
     0
281
     0
  0
CLASS
  1
MLEADERSTYLE
  2
AcDbMLeaderStyle
  3
ACDB_MLEADERSTYLE_CLASS
 90
     4095
280
     0
281
     0
  0
CLASS
  1
SUN
  2
AcDbSun
  3
SCENEOE
 90
     1153
280
     0
281
     0
  0
CLASS
  1
ACDBPLACEHOLDER
  2
AcDbPlaceHolder
  3
ObjectDBX Classes
 90
        0
280
     0
281
     0
  0
CLASS
  1
LAYOUT
  2
AcDbLayout
  3
ObjectDBX Classes
 90
        0
280
     0
281
     0
  0
ENDSEC
  0
SECTION
  2
TABLES
  0
TABLE
  2
VPORT
  5
8
330
0
100
AcDbSymbolTable
 70
     1
  0
VPORT
  5
29
330
8
100
AcDbSymbolTableRecord
100
AcDbViewportTableRecord
  2
*Active
 70
     0
 10
0.0
 20
0.0
 11
1.0
 21
1.0
 12
0.0
 22
0.0
 13
0.0
 23
0.0
 14
10.0
 24
10.0
 15
10.0
 25
10.0
 16
0.0
 26
0.0
 36
1.0
 17
0.0
 27
0.0
 37
0.0
 40
70.5844205057
 41
1.0
 42
50.0
 43
0.0
 44
0.0
 50
0.0
 51
0.0
 71
     0
 72
   100
 73
     1
 74
     3
 75
     0
 76
     0
 77
     0
 78
     0
281
     0
 65
     1
110
0.0
120
0.0
130
0.0
111
1.0
121
0.0
131
0.0
112
0.0
122
1.0
132
0.0
 79
     0
146
0.0
  0
ENDTAB
  0
TABLE
  2
LTYPE
  5
5
330
0
100
AcDbSymbolTable
 70
     6
  0
LTYPE
  5
14
330
5
100
AcDbSymbolTableRecord
100
AcDbLinetypeTableRecord
  2
ByBlock
 70
     0
  3

 72
    65
 73
     0
 40
0.0
  0
LTYPE
  5
15
330
5
100
AcDbSymbolTableRecord
100
AcDbLinetypeTableRecord
  2
ByLayer
 70
     0
  3

 72
    65
 73
     0
 40
0.0
  0
LTYPE
  5
16
330
5
100
AcDbSymbolTableRecord
100
AcDbLinetypeTableRecord
  2
Continuous
 70
     0
  3
Solid line
 72
    65
 73
     0
 40
0.0
  0
LTYPE
  5
5E
330
5
100
AcDbSymbolTableRecord
100
AcDbLinetypeTableRecord
  2
HIDDEN
 70
     0
  3
Hidden __ __ __ __ __ __ __ __ __ __ __ __ __ __
 72
    65
 73
     2
 40
1.905
 49
1.27
 74
     0
 49
-0.635
 74
     0
  0
LTYPE
  5
5F
330
5
100
AcDbSymbolTableRecord
100
AcDbLinetypeTableRecord
  2
PHANTOM
 70
     0
  3
Phantom ______  __  __  ______  __  __  ______
 72
    65
 73
     6
 40
12.7
 49
6.35
 74
     0
 49
-1.27
 74
     0
 49
1.27
 74
     0
 49
-1.27
 74
     0
 49
1.27
 74
     0
 49
-1.27
 74
     0
  0
LTYPE
  5
60
330
5
100
AcDbSymbolTableRecord
100
AcDbLinetypeTableRecord
  2
CENTER
 70
     0
  3
Center ____ _ ____ _ ____ _ ____ _ ____ _ ____
 72
    65
 73
     4
 40
10.16
 49
6.35
 74
     0
 49
-1.27
 74
     0
 49
1.27
 74
     0
 49
-1.27
 74
     0
  0
LTYPE
  5
61
330
5
100
AcDbSymbolTableRecord
100
AcDbLinetypeTableRecord
  2
CENTERX2
 70
     0
  3
Center (2x) ________  __  ________  __  _____
 72
    65
 73
     4
 40
20.32
 49
12.7
 74
     0
 49
-2.54
 74
     0
 49
2.54
 74
     0
 49
-2.54
 74
     0
  0
LTYPE
  5
62
330
5
100
AcDbSymbolTableRecord
100
AcDbLinetypeTableRecord
  2
DOT2
 70
     0
  3
Dot (.5x) ........................................
 72
    65
 73
     2
 40
0.635
 49
0.0
 74
     0
 49
-0.635
 74
     0
  0
ENDTAB
  0
TABLE
  2
LAYER
  5
2
330
0
100
AcDbSymbolTable
 70
     1
  0
LAYER
  5
10
330
2
100
AcDbSymbolTableRecord
100
AcDbLayerTableRecord
  2
0
 70
     0
 62
     7
  6
Continuous
370
    -3
390
F
  0
ENDTAB
  0
TABLE
  2
STYLE
  5
3
330
0
100
AcDbSymbolTable
 70
     1
  0
STYLE
  5
11
330
3
100
AcDbSymbolTableRecord
100
AcDbTextStyleTableRecord
  2
Standard
 70
     0
 40
0.0
 41
1.0
 50
0.0
 71
     0
 42
3.5
  3
txt
  4

  0
ENDTAB
  0
TABLE
  2
VIEW
  5
6
330
0
100
AcDbSymbolTable
 70
     0
  0
ENDTAB
  0
TABLE
  2
UCS
  5
7
330
0
100
AcDbSymbolTable
 70
     0
  0
ENDTAB
  0
TABLE
  2
APPID
  5
9
330
0
100
AcDbSymbolTable
 70
     1
  0
APPID
  5
12
330
9
100
AcDbSymbolTableRecord
100
AcDbRegAppTableRecord
  2
ACAD
 70
     0
  0
ENDTAB
  0
TABLE
  2
DIMSTYLE
  5
A
330
0
100
AcDbSymbolTable
 70
     1
100
AcDbDimStyleTable
  0
DIMSTYLE
105
27
330
A
100
AcDbSymbolTableRecord
100
AcDbDimStyleTableRecord
  2
ISO-25
 70
     0
 41
2.5
 42
0.625
 43
3.75
 44
1.25
 73
     0
 74
     0
 77
     1
 78
     8
140
2.5
141
2.5
143
0.0393700787
147
0.625
171
     3
172
     1
178
     0
271
     2
272
     2
274
     3
278
    44
283
     0
284
     8
340
11
  0
ENDTAB
  0
TABLE
  2
BLOCK_RECORD
  5
1
330
0
100
AcDbSymbolTable
 70
     1
  0
BLOCK_RECORD
  5
1F
330
1
100
AcDbSymbolTableRecord
100
AcDbBlockTableRecord
  2
*Model_Space
340
22
  0
BLOCK_RECORD
  5
1B
330
1
100
AcDbSymbolTableRecord
100
AcDbBlockTableRecord
  2
*Paper_Space
340
1E
  0
BLOCK_RECORD
  5
23
330
1
100
AcDbSymbolTableRecord
100
AcDbBlockTableRecord
  2
*Paper_Space0
340
26
  0
ENDTAB
  0
ENDSEC
  0
SECTION
  2
BLOCKS
  0
BLOCK
  5
20
330
1F
100
AcDbEntity
  8
0
100
AcDbBlockBegin
  2
*Model_Space
 70
     0
 10
0.0
 20
0.0
 30
0.0
  3
*Model_Space
  1

  0
ENDBLK
  5
21
330
1F
100
AcDbEntity
  8
0
100
AcDbBlockEnd
  0
BLOCK
  5
1C
330
1B
100
AcDbEntity
 67
     1
  8
0
100
AcDbBlockBegin
  2
*Paper_Space
 70
     0
 10
0.0
 20
0.0
 30
0.0
  3
*Paper_Space
  1

  0
ENDBLK
  5
1D
330
1B
100
AcDbEntity
 67
     1
  8
0
100
AcDbBlockEnd
  0
BLOCK
  5
24
330
23
100
AcDbEntity
  8
0
100
AcDbBlockBegin
  2
*Paper_Space0
 70
     0
 10
0.0
 20
0.0
 30
0.0
  3
*Paper_Space0
  1

  0
ENDBLK
  5
25
330
23
100
AcDbEntity
  8
0
100
AcDbBlockEnd
  0
ENDSEC
  0
SECTION
  2
ENTITIES
  0
ARC
  5
63
330
1F
100
AcDbEntity
  8
0
  6
Continuous
 62
     7
370
    25
100
AcDbCircle
 10
27.1924387178
 20
-1.8455575667
 30
0.0
 40
3.0
100
AcDbArc
 50
185.4943277663
 51
248.2408461472
  0
ARC
  5
64
330
1F
100
AcDbEntity
  8
0
  6
Continuous
 62
     7
370
    25
100
AcDbCircle
 10
27.0962026184
 20
-2.9377899539
 30
0.0
 40
3.0
100
AcDbArc
 50
101.6885502682
 51
164.4350686491
  0
SPLINE
  5
65
330
1F
100
AcDbEntity
  8
0
  6
Continuous
 62
     7
370
    25
100
AcDbSpline
210
0.0
220
0.0
230
1.0
 70
     8
 71
     4
 72
    20
 73
    15
 74
     0
 42
0.00000001
 43
0.00000001
 40
0.0
 40
0.0
 40
0.0
 40
0.0
 40
0.0
 40
0.005376747431688
 40
0.0150836867376063
 40
0.0285318185596563
 40
0.0466101376019233
 40
0.0648548474003067
 40
0.0921105229977818
 40
0.1194761732733577
 40
0.1468424933791879
 40
0.2015749542014538
 40
0.2563073451642944
 40
0.2748263522575745
 40
0.2748263522575745
 40
0.2748263522575745
 40
0.2748263522575745
 40
0.2748263522575745
 10
26.48842779499999
 20
-0.0000000083827346
 30
0.0
 10
26.53674680646944
 20
0.0016070843823564
 30
0.0
 10
26.67196933139511
 20
0.0110804584636194
 30
0.0
 10
26.92600414531516
 20
0.0485520236469208
 30
0.0
 10
27.33561947451008
 20
0.1372159210464541
 30
0.0
 10
27.84844813733311
 20
0.2900612152359384
 30
0.0
 10
28.49726340170399
 20
0.5325889676609341
 30
0.0
 10
29.24039208008612
 20
0.8746806046018797
 30
0.0
 10
30.03076836152948
 20
1.308287515126092
 30
0.0
 10
31.06544864503781
 20
1.97255994926159
 30
0.0
 10
32.23932599021875
 20
2.869847314918099
 30
0.0
 10
33.27019865168509
 20
3.814707752133429
 30
0.0
 10
34.05957459584241
 20
4.652191044240379
 30
0.0
 10
34.4920877736979
 20
5.148490121528416
 30
0.0
 10
34.60020613026765
 20
5.275010497749907
 30
0.0
  0
ARC
  5
66
330
1F
100
AcDbEntity
  8
0
  6
Continuous
 62
     7
370
    25
100
AcDbCircle
 10
0.0
 20
0.0
 30
0.0
 40
35.0
100
AcDbArc
 50
8.6683401019
 51
11.2610563089
  0
SPLINE
  5
67
330
1F
100
AcDbEntity
  8
0
  6
Continuous
 62
     7
370
    25
100
AcDbSpline
210
0.0
220
0.0
230
1.0
 70
     8
 71
     4
 72
    20
 73
    15
 74
     0
 42
0.00000001
 43
0.00000001
 40
0.0
 40
0.0
 40
0.0
 40
0.0
 40
0.0
 40
0.005376747431688
 40
0.0150836867376063
 40
0.0285318185596563
 40
0.0466101376019233
 40
0.0648548474003067
 40
0.0921105229977818
 40
0.1194761732733577
 40
0.1468424933791879
 40
0.2015749542014538
 40
0.2563073451642944
 40
0.2748263525704481
 40
0.2748263525704481
 40
0.2748263525704481
 40
0.2748263525704481
 40
0.2748263525704481
 10
24.90212502970409
 20
9.028896724180289
 30
0.0
 10
24.94809817502117
 20
9.043855986401258
 30
0.0
 10
25.07845179084308
 20
9.081042151918947
 30
0.0
 10
25.3300459452526
 20
9.132405430120821
 30
0.0
 10
25.74535293901997
 20
9.18867358755863
 30
0.0
 10
26.27956916232505
 20
9.21978545227903
 30
0.0
 10
26.97219754350339
 20
9.212938294967273
 30
0.0
 10
27.78742876395323
 20
9.144637651465302
 30
0.0
 10
28.67827216058862
 20
9.006407185237014
 30
0.0
 10
29.87741411129517
 20
8.734598911100868
 30
0.0
 10
31.28684300014502
 20
8.291177164485585
 30
0.0
 10
32.57804712595667
 20
7.754286483492761
 30
0.0
 10
33.60561616990919
 20
7.236025477232803
 30
0.0
 10
34.18139705630594
 20
6.91687535203317
 30
0.0
 10
34.3261665515818
 20
6.834785283611118
 30
0.0
  0
ARC
  5
68
330
1F
100
AcDbEntity
  8
0
  6
Continuous
 62
     7
370
    25
100
AcDbCircle
 10
24.4721215038
 20
11.997919622
 30
0.0
 40
3.000000000000063
100
AcDbArc
 50
215.4943277663
 51
278.2408461472
  0
ARC
  5
69
330
1F
100
AcDbEntity
  8
0
  6
Continuous
 62
     7
370
    25
100
AcDbCircle
 10
24.9348947906
 20
11.0039005782
 30
0.0
 40
3.0
100
AcDbArc
 50
131.6885502682
 51
194.4350686491
  0
SPLINE
  5
6A
330
1F
100
AcDbEntity
  8
0
  6
Continuous
 62
     7
370
    25
100
AcDbSpline
210
0.0
220
0.0
230
1.0
 70
     8
 71
     4
 72
    20
 73
    15
 74
     0
 42
0.00000001
 43
0.00000001
 40
0.0
 40
0.0
 40
0.0
 40
0.0
 40
0.0
 40
0.005376747431688
 40
0.0150836867376063
 40
0.0285318185596563
 40
0.0466101376019233
 40
0.0648548474003067
 40
0.0921105229977818
 40
0.1194761732733577
 40
0.1468424933791879
 40
0.2015749542014538
 40
0.2563073451642944
 40
0.2748263522575745
 40
0.2748263522575745
 40
0.2748263522575745
 40
0.2748263522575745
 40
0.2748263522575745
 10
22.93965138097134
 20
13.24421389024003
 30
0.0
 10
22.9806933260071
 20
13.26976517913557
 30
0.0
 10
23.09306278071597
 20
13.34558062421233
 30
0.0
 10
23.29432760042474
 20
13.50504935854066
 30
0.0
 10
23.60473293258731
 20
13.78664221068465
 30
0.0
 10
23.97243293528611
 20
14.17542444971316
 30
0.0
 10
24.41305956038192
 20
14.70986727662138
 30
0.0
 10
24.88558205567114
 20
15.3776916638255
 30
0.0
 10
25.35326453868768
 20
16.14839440431763
 30
0.0
 10
25.91718773193304
 20
17.24101134906685
 30
0.0
 10
26.48515165095853
 20
18.60502367481067
 30
0.0
 10
26.90548334524761
 20
19.93873314720318
 30
0.0
 10
27.17036131997071
 20
21.05870292549148
 30
0.0
 10
27.29677918082109
 20
21.70476712322544
 30
0.0
 10
27.32715223611518
 20
21.86839616141449
 30
0.0
  0
ARC
  5
6B
330
1F
100
AcDbEntity
  8
0
  6
Continuous
 62
     7
370
    25
100
AcDbCircle
 10
0.0
 20
0.0
 30
0.0
 40
35.0
100
AcDbArc
 50
38.6683401019
 51
41.2610563089
  0
SPLINE
  5
6C
330
1F
100
AcDbEntity
  8
0
  6
Continuous
 62
     7
370
    25
100
AcDbSpline
210
0.0
220
0.0
230
1.0
 70
     8
 71
     4
 72
    20
 73
    15
 74
     0
 42
0.00000001
 43
0.00000001
 40
0.0
 40
0.0
 40
0.0
 40
0.0
 40
0.0
 40
0.005376747431688
 40
0.0150836867376063
 40
0.0285318185596563
 40
0.0466101376019233
 40
0.0648548474003067
 40
0.0921105229977818
 40
0.1194761732733577
 40
0.1468424933791879
 40
0.2015749542014538
 40
0.2563073451642944
 40
0.2748263525704481
 40
0.2748263525704481
 40
0.2748263525704481
 40
0.2748263525704481
 40
0.2748263525704481
 10
17.05142452185018
 20
20.27031644613806
 30
0.0
 10
17.08375880247615
 20
20.30625811990183
 30
0.0
 10
17.17805526249424
 20
20.40363909182043
 30
0.0
 10
17.37026055255562
 20
20.57391807276966
 30
0.0
 10
17.7017928808086
 20
20.83030122341863
 30
0.0
 10
18.14888176894439
 20
21.12435300027813
 30
0.0
 10
18.75213912108281
 20
21.46473737869161
 30
0.0
 10
19.49230038970155
 20
21.81320289654898
 30
0.0
 10
20.33290863509556
 20
22.138913499536
 30
0.0
 10
21.50730016421914
 20
22.50309160452856
 30
0.0
 10
22.94961226009843
 20
22.82379155179416
 30
0.0
 10
24.33627317501902
 20
23.00443264590506
 30
0.0
 10
25.48530457435436
 20
23.06938997066929
 30
0.0
 10
26.14352051158729
 20
23.08088829782379
 30
0.0
 10
26.30993960640026
 20
23.08218096080982
 30
0.0
  0
ARC
  5
6D
330
1F
100
AcDbEntity
  8
0
  6
Continuous
 62
     7
370
    25
100
AcDbCircle
 10
15.1945190958
 20
22.6265639371
 30
0.0
 40
3.0
100
AcDbArc
 50
245.4943277663
 51
308.2408461472
  0
ARC
  5
6E
330
1F
100
AcDbEntity
  8
0
  6
Continuous
 62
     7
370
    25
100
AcDbCircle
 10
16.0923020403
 20
21.9971048367
 30
0.0
 40
3.000000000000002
100
AcDbArc
 50
161.6885502682
 51
224.4350686491
  0
SPLINE
  5
6F
330
1F
100
AcDbEntity
  8
0
  6
Continuous
 62
     7
370
    25
100
AcDbSpline
210
0.0
220
0.0
230
1.0
 70
     8
 71
     4
 72
    20
 73
    15
 74
     0
 42
0.00000001
 43
0.00000001
 40
0.0
 40
0.0
 40
0.0
 40
0.0
 40
0.0
 40
0.005376747431688
 40
0.0150836867376063
 40
0.0285318185596563
 40
0.0466101376019233
 40
0.0648548474003067
 40
0.0921105229977818
 40
0.1194761732733577
 40
0.1468424933791879
 40
0.2015749542014538
 40
0.2563073451642944
 40
0.2748263522575745
 40
0.2748263522575745
 40
0.2748263522575745
 40
0.2748263522575745
 40
0.2748263522575745
 10
13.24421390475992
 20
22.93965137258829
 30
0.0
 10
13.26698162733384
 20
22.98230041038913
 30
0.0
 10
13.32638870718275
 20
23.10414323917927
 30
0.0
 10
13.42095478677448
 20
23.34287962407134
 30
0.0
 10
13.54897726382541
 20
23.74194885363343
 30
0.0
 10
13.67302368761993
 20
24.26249415052171
 30
0.0
 10
13.78739612508259
 20
24.94564852804251
 30
0.0
 10
13.8627004162606
 20
25.76026266027266
 30
0.0
 10
13.88237395721184
 20
26.6615520538134
 30
0.0
 10
13.82443729597095
 20
27.88974768119424
 30
0.0
 10
13.63430231540809
 20
29.35499896587623
 30
0.0
 10
13.33146550448193
 20
30.72019109738063
 30
0.0
 10
13.00087167035095
 20
31.82255236421067
 30
0.0
 10
12.78732065047249
 20
32.44526930234908
 30
0.0
 10
12.73180996885319
 20
32.60216273386466
 30
0.0
  0
ARC
  5
70
330
1F
100
AcDbEntity
  8
0
  6
Continuous
 62
     7
370
    25
100
AcDbCircle
 10
0.0
 20
0.0
 30
0.0
 40
35.0
100
AcDbArc
 50
68.6683401019
 51
71.2610563089
  0
SPLINE
  5
71
330
1F
100
AcDbEntity
  8
0
  6
Continuous
 62
     7
370
    25
100
AcDbSpline
210
0.0
220
0.0
230
1.0
 70
     8
 71
     4
 72
    20
 73
    15
 74
     0
 42
0.00000001
 43
0.00000001
 40
0.0
 40
0.0
 40
0.0
 40
0.0
 40
0.0
 40
0.005376747431688
 40
0.0150836867376063
 40
0.0285318185596563
 40
0.0466101376019233
 40
0.0648548474003067
 40
0.0921105229977818
 40
0.1194761732733577
 40
0.1468424933791879
 40
0.2015749542014538
 40
0.2563073451642944
 40
0.2748263525704481
 40
0.2748263525704481
 40
0.2748263525704481
 40
0.2748263525704481
 40
0.2748263525704481
 10
4.63180858356612
 20
26.08032124603015
 30
0.0
 10
4.641840055119426
 20
26.1276147888771
 30
0.0
 10
4.674812699022732
 20
26.25909741441287
 30
0.0
 10
4.756127872483026
 20
26.50266598267612
 30
0.0
 10
4.915051715601427
 20
26.89046646836691
 30
0.0
 10
5.155216162047005
 20
27.36866722122309
 30
0.0
 10
5.507460164811873
 20
27.96507741604974
 30
0.0
 10
5.974225867404328
 20
28.6369380411665
 30
0.0
 10
6.539358661052697
 20
29.33931582033222
 30
0.0
 10
7.374322506766688
 20
30.24189907531963
 30
0.0
 10
8.463051448350926
 20
31.24078942458362
 30
0.0
 10
9.57361448005168
 20
32.09055965851137
 30
0.0
 10
10.53622619923995
 20
32.72133005158675
 30
0.0
 10
11.1005087584822
 20
33.06039586362003
 30
0.0
 10
11.24398559077203
 20
33.14472489001095
 30
0.0
  0
ARC
  5
72
330
1F
100
AcDbEntity
  8
0
  6
Continuous
 62
     7
370
    25
100
AcDbCircle
 10
1.8455575667
 20
27.1924387178
 30
0.0
 40
2.999999999999997
100
AcDbArc
 50
275.4943277663
 51
338.2408461472
  0
ARC
  5
73
330
1F
100
AcDbEntity
  8
0
  6
Continuous
 62
     7
370
    25
100
AcDbCircle
 10
2.9377899539
 20
27.0962026184
 30
0.0
 40
2.999999999999998
100
AcDbArc
 50
191.6885502682
 51
254.4350686491
  0
SPLINE
  5
74
330
1F
100
AcDbEntity
  8
0
  6
Continuous
 62
     7
370
    25
100
AcDbSpline
210
0.0
220
0.0
230
1.0
 70
     8
 71
     4
 72
    20
 73
    15
 74
     0
 42
0.00000001
 43
0.00000001
 40
0.0
 40
0.0
 40
0.0
 40
0.0
 40
0.0
 40
0.005376747431688
 40
0.0150836867376063
 40
0.0285318185596563
 40
0.0466101376019233
 40
0.0648548474003067
 40
0.0921105229977818
 40
0.1194761732733577
 40
0.1468424933791879
 40
0.2015749542014538
 40
0.2563073451642944
 40
0.2748263522575745
 40
0.2748263522575745
 40
0.2748263522575745
 40
0.2748263522575745
 40
0.2748263522575745
 10
0.0000000083830121
 20
26.48842779499999
 30
0.0
 10
-0.0016070843820785
 20
26.53674680646944
 30
0.0
 10
-0.0110804584633401
 20
26.67196933139511
 30
0.0
 10
-0.0485520236466387
 20
26.92600414531516
 30
0.0
 10
-0.1372159210461677
 20
27.33561947451008
 30
0.0
 10
-0.2900612152356467
 20
27.84844813733311
 30
0.0
 10
-0.5325889676606356
 20
28.497263401704
 30
0.0
 10
-0.8746806046015734
 20
29.24039208008613
 30
0.0
 10
-1.308287515125777
 20
30.0307683615295
 30
0.0
 10
-1.972559949261264
 20
31.06544864503783
 30
0.0
 10
-2.869847314917761
 20
32.23932599021878
 30
0.0
 10
-3.81470775213308
 20
33.27019865168513
 30
0.0
 10
-4.652191044240022
 20
34.05957459584246
 30
0.0
 10
-5.148490121528053
 20
34.49208777369796
 30
0.0
 10
-5.275010497749545
 20
34.60020613026771
 30
0.0
  0
ARC
  5
75
330
1F
100
AcDbEntity
  8
0
  6
Continuous
 62
     7
370
    25
100
AcDbCircle
 10
0.0
 20
0.0
 30
0.0
 40
35.0
100
AcDbArc
 50
98.6683401019
 51
101.2610563089
  0
SPLINE
  5
76
330
1F
100
AcDbEntity
  8
0
  6
Continuous
 62
     7
370
    25
100
AcDbSpline
210
0.0
220
0.0
230
1.0
 70
     8
 71
     4
 72
    20
 73
    15
 74
     0
 42
0.00000001
 43
0.00000001
 40
0.0
 40
0.0
 40
0.0
 40
0.0
 40
0.0
 40
0.005376747431688
 40
0.0150836867376063
 40
0.0285318185596563
 40
0.0466101376019233
 40
0.0648548474003067
 40
0.0921105229977818
 40
0.1194761732733577
 40
0.1468424933791879
 40
0.2015749542014538
 40
0.2563073451642944
 40
0.2748263525704481
 40
0.2748263525704481
 40
0.2748263525704481
 40
0.2748263525704481
 40
0.2748263525704481
 10
-9.028896724180028
 20
24.90212502970418
 30
0.0
 10
-9.043855986400995
 20
24.94809817502126
 30
0.0
 10
-9.081042151918686
 20
25.07845179084318
 30
0.0
 10
-9.132405430120555
 20
25.3300459452527
 30
0.0
 10
-9.188673587558362
 20
25.74535293902007
 30
0.0
 10
-9.219785452278753
 20
26.27956916232515
 30
0.0
 10
-9.21293829496699
 20
26.97219754350349
 30
0.0
 10
-9.144637651465011
 20
27.78742876395332
 30
0.0
 10
-9.006407185236714
 20
28.67827216058871
 30
0.0
 10
-8.734598911100555
 20
29.87741411129526
 30
0.0
 10
-8.291177164485257
 20
31.28684300014511
 30
0.0
 10
-7.75428648349242
 20
32.57804712595676
 30
0.0
 10
-7.236025477232451
 20
33.60561616990927
 30
0.0
 10
-6.916875352032811
 20
34.18139705630601
 30
0.0
 10
-6.834785283610757
 20
34.32616655158187
 30
0.0
  0
ARC
  5
77
330
1F
100
AcDbEntity
  8
0
  6
Continuous
 62
     7
370
    25
100
AcDbCircle
 10
-11.997919622
 20
24.4721215038
 30
0.0
 40
3.000000000000006
100
AcDbArc
 50
305.4943277663
 51
8.2408461472
  0
ARC
  5
78
330
1F
100
AcDbEntity
  8
0
  6
Continuous
 62
     7
370
    25
100
AcDbCircle
 10
-11.0039005782
 20
24.9348947906
 30
0.0
 40
3.000000000000006
100
AcDbArc
 50
221.6885502682
 51
284.4350686491
  0
SPLINE
  5
79
330
1F
100
AcDbEntity
  8
0
  6
Continuous
 62
     7
370
    25
100
AcDbSpline
210
0.0
220
0.0
230
1.0
 70
     8
 71
     4
 72
    20
 73
    15
 74
     0
 42
0.00000001
 43
0.00000001
 40
0.0
 40
0.0
 40
0.0
 40
0.0
 40
0.0
 40
0.005376747431688
 40
0.0150836867376063
 40
0.0285318185596563
 40
0.0466101376019233
 40
0.0648548474003067
 40
0.0921105229977818
 40
0.1194761732733577
 40
0.1468424933791879
 40
0.2015749542014538
 40
0.2563073451642944
 40
0.2748263522575745
 40
0.2748263522575745
 40
0.2748263522575745
 40
0.2748263522575745
 40
0.2748263522575745
 10
-13.24421389024012
 20
22.9396513809713
 30
0.0
 10
-13.26976517913565
 20
22.98069332600705
 30
0.0
 10
-13.34558062421241
 20
23.09306278071592
 30
0.0
 10
-13.50504935854074
 20
23.2943276004247
 30
0.0
 10
-13.78664221068473
 20
23.60473293258726
 30
0.0
 10
-14.17542444971324
 20
23.97243293528607
 30
0.0
 10
-14.70986727662147
 20
24.41305956038187
 30
0.0
 10
-15.37769166382559
 20
24.88558205567109
 30
0.0
 10
-16.14839440431772
 20
25.35326453868762
 30
0.0
 10
-17.24101134906694
 20
25.91718773193297
 30
0.0
 10
-18.60502367481076
 20
26.48515165095847
 30
0.0
 10
-19.93873314720328
 20
26.90548334524754
 30
0.0
 10
-21.05870292549157
 20
27.17036131997063
 30
0.0
 10
-21.70476712322554
 20
27.29677918082102
 30
0.0
 10
-21.86839616141459
 20
27.3271522361151
 30
0.0
  0
ARC
  5
7A
330
1F
100
AcDbEntity
  8
0
  6
Continuous
 62
     7
370
    25
100
AcDbCircle
 10
0.0
 20
0.0
 30
0.0
 40
35.0
100
AcDbArc
 50
128.6683401019
 51
131.2610563089
  0
SPLINE
  5
7B
330
1F
100
AcDbEntity
  8
0
  6
Continuous
 62
     7
370
    25
100
AcDbSpline
210
0.0
220
0.0
230
1.0
 70
     8
 71
     4
 72
    20
 73
    15
 74
     0
 42
0.00000001
 43
0.00000001
 40
0.0
 40
0.0
 40
0.0
 40
0.0
 40
0.0
 40
0.005376747431688
 40
0.0150836867376063
 40
0.0285318185596563
 40
0.0466101376019233
 40
0.0648548474003067
 40
0.0921105229977818
 40
0.1194761732733577
 40
0.1468424933791879
 40
0.2015749542014538
 40
0.2563073451642944
 40
0.2748263525704481
 40
0.2748263525704481
 40
0.2748263525704481
 40
0.2748263525704481
 40
0.2748263525704481
 10
-20.27031644613812
 20
17.05142452185011
 30
0.0
 10
-20.30625811990189
 20
17.08375880247608
 30
0.0
 10
-20.4036390918205
 20
17.17805526249417
 30
0.0
 10
-20.57391807276972
 20
17.37026055255555
 30
0.0
 10
-20.83030122341869
 20
17.70179288080853
 30
0.0
 10
-21.12435300027819
 20
18.14888176894432
 30
0.0
 10
-21.46473737869167
 20
18.75213912108273
 30
0.0
 10
-21.81320289654905
 20
19.49230038970147
 30
0.0
 10
-22.13891349953608
 20
20.33290863509548
 30
0.0
 10
-22.50309160452863
 20
21.50730016421905
 30
0.0
 10
-22.82379155179424
 20
22.94961226009835
 30
0.0
 10
-23.00443264590514
 20
24.33627317501893
 30
0.0
 10
-23.06938997066938
 20
25.48530457435428
 30
0.0
 10
-23.08088829782388
 20
26.1435205115872
 30
0.0
 10
-23.08218096080991
 20
26.30993960640017
 30
0.0
  0
ARC
  5
7C
330
1F
100
AcDbEntity
  8
0
  6
Continuous
 62
     7
370
    25
100
AcDbCircle
 10
-22.6265639371
 20
15.1945190958
 30
0.0
 40
3.000000000000004
100
AcDbArc
 50
335.4943277663
 51
38.2408461472
  0
ARC
  5
7D
330
1F
100
AcDbEntity
  8
0
  6
Continuous
 62
     7
370
    25
100
AcDbCircle
 10
-21.9971048367
 20
16.0923020403
 30
0.0
 40
3.000000000000003
100
AcDbArc
 50
251.6885502682
 51
314.4350686491
  0
SPLINE
  5
7E
330
1F
100
AcDbEntity
  8
0
  6
Continuous
 62
     7
370
    25
100
AcDbSpline
210
0.0
220
0.0
230
1.0
 70
     8
 71
     4
 72
    20
 73
    15
 74
     0
 42
0.00000001
 43
0.00000001
 40
0.0
 40
0.0
 40
0.0
 40
0.0
 40
0.0
 40
0.005376747431688
 40
0.0150836867376063
 40
0.0285318185596563
 40
0.0466101376019233
 40
0.0648548474003067
 40
0.0921105229977818
 40
0.1194761732733577
 40
0.1468424933791879
 40
0.2015749542014538
 40
0.2563073451642944
 40
0.2748263522575745
 40
0.2748263522575745
 40
0.2748263522575745
 40
0.2748263522575745
 40
0.2748263522575745
 10
-22.93965137258834
 20
13.24421390475984
 30
0.0
 10
-22.98230041038918
 20
13.26698162733376
 30
0.0
 10
-23.10414323917931
 20
13.32638870718267
 30
0.0
 10
-23.34287962407138
 20
13.4209547867744
 30
0.0
 10
-23.74194885363347
 20
13.54897726382532
 30
0.0
 10
-24.26249415052176
 20
13.67302368761984
 30
0.0
 10
-24.94564852804256
 20
13.7873961250825
 30
0.0
 10
-25.76026266027271
 20
13.86270041626051
 30
0.0
 10
-26.66155205381345
 20
13.88237395721175
 30
0.0
 10
-27.88974768119429
 20
13.82443729597085
 30
0.0
 10
-29.35499896587628
 20
13.63430231540798
 30
0.0
 10
-30.72019109738068
 20
13.33146550448182
 30
0.0
 10
-31.82255236421071
 20
13.00087167035084
 30
0.0
 10
-32.44526930234913
 20
12.78732065047238
 30
0.0
 10
-32.6021627338647
 20
12.73180996885308
 30
0.0
  0
ARC
  5
7F
330
1F
100
AcDbEntity
  8
0
  6
Continuous
 62
     7
370
    25
100
AcDbCircle
 10
0.0
 20
0.0
 30
0.0
 40
35.00000000000001
100
AcDbArc
 50
158.6683401019
 51
161.2610563089
  0
SPLINE
  5
80
330
1F
100
AcDbEntity
  8
0
  6
Continuous
 62
     7
370
    25
100
AcDbSpline
210
0.0
220
0.0
230
1.0
 70
     8
 71
     4
 72
    20
 73
    15
 74
     0
 42
0.00000001
 43
0.00000001
 40
0.0
 40
0.0
 40
0.0
 40
0.0
 40
0.0
 40
0.005376747431688
 40
0.0150836867376063
 40
0.0285318185596563
 40
0.0466101376019233
 40
0.0648548474003067
 40
0.0921105229977818
 40
0.1194761732733577
 40
0.1468424933791879
 40
0.2015749542014538
 40
0.2563073451642944
 40
0.2748263525704481
 40
0.2748263525704481
 40
0.2748263525704481
 40
0.2748263525704481
 40
0.2748263525704481
 10
-26.08032124603017
 20
4.631808583566028
 30
0.0
 10
-26.12761478887712
 20
4.641840055119336
 30
0.0
 10
-26.2590974144129
 20
4.674812699022643
 30
0.0
 10
-26.50266598267614
 20
4.756127872482932
 30
0.0
 10
-26.89046646836693
 20
4.915051715601334
 30
0.0
 10
-27.36866722122311
 20
5.155216162046911
 30
0.0
 10
-27.96507741604976
 20
5.507460164811776
 30
0.0
 10
-28.63693804116652
 20
5.974225867404228
 30
0.0
 10
-29.33931582033224
 20
6.539358661052595
 30
0.0
 10
-30.24189907531965
 20
7.374322506766583
 30
0.0
 10
-31.24078942458365
 20
8.463051448350818
 30
0.0
 10
-32.0905596585114
 20
9.57361448005157
 30
0.0
 10
-32.72133005158678
 20
10.53622619923984
 30
0.0
 10
-33.06039586362007
 20
11.10050875848208
 30
0.0
 10
-33.14472489001099
 20
11.24398559077191
 30
0.0
  0
ARC
  5
81
330
1F
100
AcDbEntity
  8
0
  6
Continuous
 62
     7
370
    25
100
AcDbCircle
 10
-27.1924387178
 20
1.8455575667
 30
0.0
 40
2.999999999999997
100
AcDbArc
 50
5.4943277663
 51
68.2408461472
  0
ARC
  5
82
330
1F
100
AcDbEntity
  8
0
  6
Continuous
 62
     7
370
    25
100
AcDbCircle
 10
-27.0962026184
 20
2.9377899539
 30
0.0
 40
3.0
100
AcDbArc
 50
281.6885502682
 51
344.4350686491
  0
SPLINE
  5
83
330
1F
100
AcDbEntity
  8
0
  6
Continuous
 62
     7
370
    25
100
AcDbSpline
210
0.0
220
0.0
230
1.0
 70
     8
 71
     4
 72
    20
 73
    15
 74
     0
 42
0.00000001
 43
0.00000001
 40
0.0
 40
0.0
 40
0.0
 40
0.0
 40
0.0
 40
0.005376747431688
 40
0.0150836867376063
 40
0.0285318185596563
 40
0.0466101376019233
 40
0.0648548474003067
 40
0.0921105229977818
 40
0.1194761732733577
 40
0.1468424933791879
 40
0.2015749542014538
 40
0.2563073451642944
 40
0.2748263522575745
 40
0.2748263522575745
 40
0.2748263522575745
 40
0.2748263522575745
 40
0.2748263522575745
 10
-26.48842779499999
 20
0.0000000083827346
 30
0.0
 10
-26.53674680646944
 20
-0.0016070843823564
 30
0.0
 10
-26.67196933139511
 20
-0.0110804584636194
 30
0.0
 10
-26.92600414531516
 20
-0.0485520236469208
 30
0.0
 10
-27.33561947451008
 20
-0.1372159210464541
 30
0.0
 10
-27.84844813733311
 20
-0.2900612152359384
 30
0.0
 10
-28.49726340170399
 20
-0.5325889676609341
 30
0.0
 10
-29.24039208008612
 20
-0.8746806046018797
 30
0.0
 10
-30.03076836152948
 20
-1.308287515126092
 30
0.0
 10
-31.06544864503781
 20
-1.97255994926159
 30
0.0
 10
-32.23932599021875
 20
-2.869847314918099
 30
0.0
 10
-33.27019865168509
 20
-3.814707752133429
 30
0.0
 10
-34.05957459584241
 20
-4.652191044240379
 30
0.0
 10
-34.4920877736979
 20
-5.148490121528416
 30
0.0
 10
-34.60020613026765
 20
-5.275010497749907
 30
0.0
  0
ARC
  5
84
330
1F
100
AcDbEntity
  8
0
  6
Continuous
 62
     7
370
    25
100
AcDbCircle
 10
0.0
 20
0.0
 30
0.0
 40
35.0
100
AcDbArc
 50
188.6683401019
 51
191.2610563089
  0
SPLINE
  5
85
330
1F
100
AcDbEntity
  8
0
  6
Continuous
 62
     7
370
    25
100
AcDbSpline
210
0.0
220
0.0
230
1.0
 70
     8
 71
     4
 72
    20
 73
    15
 74
     0
 42
0.00000001
 43
0.00000001
 40
0.0
 40
0.0
 40
0.0
 40
0.0
 40
0.0
 40
0.005376747431688
 40
0.0150836867376063
 40
0.0285318185596563
 40
0.0466101376019233
 40
0.0648548474003067
 40
0.0921105229977818
 40
0.1194761732733577
 40
0.1468424933791879
 40
0.2015749542014538
 40
0.2563073451642944
 40
0.2748263525704481
 40
0.2748263525704481
 40
0.2748263525704481
 40
0.2748263525704481
 40
0.2748263525704481
 10
-24.90212502970409
 20
-9.028896724180289
 30
0.0
 10
-24.94809817502117
 20
-9.043855986401258
 30
0.0
 10
-25.07845179084308
 20
-9.081042151918947
 30
0.0
 10
-25.3300459452526
 20
-9.132405430120821
 30
0.0
 10
-25.74535293901997
 20
-9.18867358755863
 30
0.0
 10
-26.27956916232505
 20
-9.21978545227903
 30
0.0
 10
-26.97219754350339
 20
-9.212938294967273
 30
0.0
 10
-27.78742876395323
 20
-9.144637651465302
 30
0.0
 10
-28.67827216058862
 20
-9.006407185237014
 30
0.0
 10
-29.87741411129517
 20
-8.734598911100868
 30
0.0
 10
-31.28684300014502
 20
-8.291177164485585
 30
0.0
 10
-32.57804712595667
 20
-7.754286483492761
 30
0.0
 10
-33.60561616990919
 20
-7.236025477232803
 30
0.0
 10
-34.18139705630594
 20
-6.91687535203317
 30
0.0
 10
-34.3261665515818
 20
-6.834785283611118
 30
0.0
  0
ARC
  5
86
330
1F
100
AcDbEntity
  8
0
  6
Continuous
 62
     7
370
    25
100
AcDbCircle
 10
-24.4721215038
 20
-11.997919622
 30
0.0
 40
3.000000000000032
100
AcDbArc
 50
35.4943277663
 51
98.2408461472
  0
ARC
  5
87
330
1F
100
AcDbEntity
  8
0
  6
Continuous
 62
     7
370
    25
100
AcDbCircle
 10
-24.9348947906
 20
-11.0039005782
 30
0.0
 40
3.000000000000004
100
AcDbArc
 50
311.6885502682
 51
14.4350686491
  0
SPLINE
  5
88
330
1F
100
AcDbEntity
  8
0
  6
Continuous
 62
     7
370
    25
100
AcDbSpline
210
0.0
220
0.0
230
1.0
 70
     8
 71
     4
 72
    20
 73
    15
 74
     0
 42
0.00000001
 43
0.00000001
 40
0.0
 40
0.0
 40
0.0
 40
0.0
 40
0.0
 40
0.005376747431688
 40
0.0150836867376063
 40
0.0285318185596563
 40
0.0466101376019233
 40
0.0648548474003067
 40
0.0921105229977818
 40
0.1194761732733577
 40
0.1468424933791879
 40
0.2015749542014538
 40
0.2563073451642944
 40
0.2748263522575745
 40
0.2748263522575745
 40
0.2748263522575745
 40
0.2748263522575745
 40
0.2748263522575745
 10
-22.93965138097125
 20
-13.2442138902402
 30
0.0
 10
-22.98069332600701
 20
-13.26976517913573
 30
0.0
 10
-23.09306278071588
 20
-13.34558062421249
 30
0.0
 10
-23.29432760042465
 20
-13.50504935854082
 30
0.0
 10
-23.60473293258721
 20
-13.78664221068481
 30
0.0
 10
-23.97243293528602
 20
-14.17542444971332
 30
0.0
 10
-24.41305956038182
 20
-14.70986727662155
 30
0.0
 10
-24.88558205567103
 20
-15.37769166382567
 30
0.0
 10
-25.35326453868757
 20
-16.14839440431781
 30
0.0
 10
-25.91718773193292
 20
-17.24101134906703
 30
0.0
 10
-26.4851516509584
 20
-18.60502367481086
 30
0.0
 10
-26.90548334524748
 20
-19.93873314720338
 30
0.0
 10
-27.17036131997056
 20
-21.05870292549167
 30
0.0
 10
-27.29677918082094
 20
-21.70476712322563
 30
0.0
 10
-27.32715223611503
 20
-21.86839616141469
 30
0.0
  0
ARC
  5
89
330
1F
100
AcDbEntity
  8
0
  6
Continuous
 62
     7
370
    25
100
AcDbCircle
 10
0.0
 20
0.0
 30
0.0
 40
35.0
100
AcDbArc
 50
218.6683401019
 51
221.2610563089
  0
SPLINE
  5
8A
330
1F
100
AcDbEntity
  8
0
  6
Continuous
 62
     7
370
    25
100
AcDbSpline
210
0.0
220
0.0
230
1.0
 70
     8
 71
     4
 72
    20
 73
    15
 74
     0
 42
0.00000001
 43
0.00000001
 40
0.0
 40
0.0
 40
0.0
 40
0.0
 40
0.0
 40
0.005376747431688
 40
0.0150836867376063
 40
0.0285318185596563
 40
0.0466101376019233
 40
0.0648548474003067
 40
0.0921105229977818
 40
0.1194761732733577
 40
0.1468424933791879
 40
0.2015749542014538
 40
0.2563073451642944
 40
0.2748263525704481
 40
0.2748263525704481
 40
0.2748263525704481
 40
0.2748263525704481
 40
0.2748263525704481
 10
-17.05142452185004
 20
-20.27031644613817
 30
0.0
 10
-17.08375880247601
 20
-20.30625811990194
 30
0.0
 10
-17.17805526249411
 20
-20.40363909182055
 30
0.0
 10
-17.37026055255548
 20
-20.57391807276978
 30
0.0
 10
-17.70179288080846
 20
-20.83030122341875
 30
0.0
 10
-18.14888176894424
 20
-21.12435300027826
 30
0.0
 10
-18.75213912108266
 20
-21.46473737869174
 30
0.0
 10
-19.49230038970139
 20
-21.81320289654912
 30
0.0
 10
-20.33290863509541
 20
-22.13891349953614
 30
0.0
 10
-21.50730016421898
 20
-22.50309160452871
 30
0.0
 10
-22.94961226009827
 20
-22.82379155179432
 30
0.0
 10
-24.33627317501886
 20
-23.00443264590523
 30
0.0
 10
-25.4853045743542
 20
-23.06938997066947
 30
0.0
 10
-26.14352051158713
 20
-23.08088829782398
 30
0.0
 10
-26.3099396064001
 20
-23.08218096081
 30
0.0
  0
ARC
  5
8B
330
1F
100
AcDbEntity
  8
0
  6
Continuous
 62
     7
370
    25
100
AcDbCircle
 10
-15.1945190958
 20
-22.6265639371
 30
0.0
 40
3.000000000000001
100
AcDbArc
 50
65.4943277663
 51
128.2408461472
  0
ARC
  5
8C
330
1F
100
AcDbEntity
  8
0
  6
Continuous
 62
     7
370
    25
100
AcDbCircle
 10
-16.0923020403
 20
-21.9971048367
 30
0.0
 40
3.0
100
AcDbArc
 50
341.6885502682
 51
44.4350686491
  0
SPLINE
  5
8D
330
1F
100
AcDbEntity
  8
0
  6
Continuous
 62
     7
370
    25
100
AcDbSpline
210
0.0
220
0.0
230
1.0
 70
     8
 71
     4
 72
    20
 73
    15
 74
     0
 42
0.00000001
 43
0.00000001
 40
0.0
 40
0.0
 40
0.0
 40
0.0
 40
0.0
 40
0.005376747431688
 40
0.0150836867376063
 40
0.0285318185596563
 40
0.0466101376019233
 40
0.0648548474003067
 40
0.0921105229977818
 40
0.1194761732733577
 40
0.1468424933791879
 40
0.2015749542014538
 40
0.2563073451642944
 40
0.2748263522575745
 40
0.2748263522575745
 40
0.2748263522575745
 40
0.2748263522575745
 40
0.2748263522575745
 10
-13.24421390475976
 20
-22.93965137258839
 30
0.0
 10
-13.26698162733368
 20
-22.98230041038923
 30
0.0
 10
-13.32638870718259
 20
-23.10414323917936
 30
0.0
 10
-13.42095478677432
 20
-23.34287962407143
 30
0.0
 10
-13.54897726382524
 20
-23.74194885363352
 30
0.0
 10
-13.67302368761976
 20
-24.26249415052181
 30
0.0
 10
-13.78739612508241
 20
-24.94564852804261
 30
0.0
 10
-13.86270041626042
 20
-25.76026266027276
 30
0.0
 10
-13.88237395721165
 20
-26.6615520538135
 30
0.0
 10
-13.82443729597076
 20
-27.88974768119434
 30
0.0
 10
-13.63430231540788
 20
-29.35499896587633
 30
0.0
 10
-13.33146550448171
 20
-30.72019109738073
 30
0.0
 10
-13.00087167035073
 20
-31.82255236421076
 30
0.0
 10
-12.78732065047226
 20
-32.44526930234918
 30
0.0
 10
-12.73180996885296
 20
-32.60216273386476
 30
0.0
  0
ARC
  5
8E
330
1F
100
AcDbEntity
  8
0
  6
Continuous
 62
     7
370
    25
100
AcDbCircle
 10
0.0
 20
0.0
 30
0.0
 40
35.00000000000001
100
AcDbArc
 50
248.6683401019
 51
251.2610563089
  0
SPLINE
  5
8F
330
1F
100
AcDbEntity
  8
0
  6
Continuous
 62
     7
370
    25
100
AcDbSpline
210
0.0
220
0.0
230
1.0
 70
     8
 71
     4
 72
    20
 73
    15
 74
     0
 42
0.00000001
 43
0.00000001
 40
0.0
 40
0.0
 40
0.0
 40
0.0
 40
0.0
 40
0.005376747431688
 40
0.0150836867376063
 40
0.0285318185596563
 40
0.0466101376019233
 40
0.0648548474003067
 40
0.0921105229977818
 40
0.1194761732733577
 40
0.1468424933791879
 40
0.2015749542014538
 40
0.2563073451642944
 40
0.2748263525704481
 40
0.2748263525704481
 40
0.2748263525704481
 40
0.2748263525704481
 40
0.2748263525704481
 10
-4.631808583565938
 20
-26.08032124603019
 30
0.0
 10
-4.641840055119244
 20
-26.12761478887714
 30
0.0
 10
-4.674812699022548
 20
-26.25909741441292
 30
0.0
 10
-4.756127872482838
 20
-26.50266598267615
 30
0.0
 10
-4.91505171560124
 20
-26.89046646836695
 30
0.0
 10
-5.155216162046814
 20
-27.36866722122313
 30
0.0
 10
-5.507460164811679
 20
-27.96507741604979
 30
0.0
 10
-5.974225867404128
 20
-28.63693804116655
 30
0.0
 10
-6.539358661052493
 20
-29.33931582033227
 30
0.0
 10
-7.374322506766478
 20
-30.24189907531969
 30
0.0
 10
-8.46305144835071
 20
-31.24078942458369
 30
0.0
 10
-9.573614480051456
 20
-32.09055965851145
 30
0.0
 10
-10.53622619923972
 20
-32.72133005158683
 30
0.0
 10
-11.10050875848197
 20
-33.06039586362012
 30
0.0
 10
-11.2439855907718
 20
-33.14472489001103
 30
0.0
  0
ARC
  5
90
330
1F
100
AcDbEntity
  8
0
  6
Continuous
 62
     7
370
    25
100
AcDbCircle
 10
-1.8455575667
 20
-27.1924387178
 30
0.0
 40
3.000000000000003
100
AcDbArc
 50
95.4943277663
 51
158.2408461472
  0
ARC
  5
91
330
1F
100
AcDbEntity
  8
0
  6
Continuous
 62
     7
370
    25
100
AcDbCircle
 10
-2.9377899539
 20
-27.0962026184
 30
0.0
 40
3.0
100
AcDbArc
 50
11.6885502682
 51
74.4350686491
  0
SPLINE
  5
92
330
1F
100
AcDbEntity
  8
0
  6
Continuous
 62
     7
370
    25
100
AcDbSpline
210
0.0
220
0.0
230
1.0
 70
     8
 71
     4
 72
    20
 73
    15
 74
     0
 42
0.00000001
 43
0.00000001
 40
0.0
 40
0.0
 40
0.0
 40
0.0
 40
0.0
 40
0.005376747431688
 40
0.0150836867376063
 40
0.0285318185596563
 40
0.0466101376019233
 40
0.0648548474003067
 40
0.0921105229977818
 40
0.1194761732733577
 40
0.1468424933791879
 40
0.2015749542014538
 40
0.2563073451642944
 40
0.2748263522575745
 40
0.2748263522575745
 40
0.2748263522575745
 40
0.2748263522575745
 40
0.2748263522575745
 10
-0.0000000083828271
 20
-26.48842779499999
 30
0.0
 10
0.0016070843822638
 20
-26.53674680646944
 30
0.0
 10
0.0110804584635263
 20
-26.67196933139511
 30
0.0
 10
0.0485520236468267
 20
-26.92600414531516
 30
0.0
 10
0.1372159210463586
 20
-27.33561947451008
 30
0.0
 10
0.2900612152358412
 20
-27.84844813733311
 30
0.0
 10
0.5325889676608345
 20
-28.497263401704
 30
0.0
 10
0.8746806046017775
 20
-29.24039208008612
 30
0.0
 10
1.308287515125987
 20
-30.03076836152949
 30
0.0
 10
1.972559949261481
 20
-31.06544864503782
 30
0.0
 10
2.869847314917986
 20
-32.23932599021876
 30
0.0
 10
3.814707752133312
 20
-33.27019865168511
 30
0.0
 10
4.65219104424026
 20
-34.05957459584242
 30
0.0
 10
5.148490121528295
 20
-34.49208777369793
 30
0.0
 10
5.275010497749787
 20
-34.60020613026767
 30
0.0
  0
ARC
  5
93
330
1F
100
AcDbEntity
  8
0
  6
Continuous
 62
     7
370
    25
100
AcDbCircle
 10
0.0
 20
0.0
 30
0.0
 40
35.0
100
AcDbArc
 50
278.6683401019
 51
281.2610563089
  0
SPLINE
  5
94
330
1F
100
AcDbEntity
  8
0
  6
Continuous
 62
     7
370
    25
100
AcDbSpline
210
0.0
220
0.0
230
1.0
 70
     8
 71
     4
 72
    20
 73
    15
 74
     0
 42
0.00000001
 43
0.00000001
 40
0.0
 40
0.0
 40
0.0
 40
0.0
 40
0.0
 40
0.005376747431688
 40
0.0150836867376063
 40
0.0285318185596563
 40
0.0466101376019233
 40
0.0648548474003067
 40
0.0921105229977818
 40
0.1194761732733577
 40
0.1468424933791879
 40
0.2015749542014538
 40
0.2563073451642944
 40
0.2748263525704481
 40
0.2748263525704481
 40
0.2748263525704481
 40
0.2748263525704481
 40
0.2748263525704481
 10
9.028896724180202
 20
-24.90212502970412
 30
0.0
 10
9.043855986401171
 20
-24.9480981750212
 30
0.0
 10
9.08104215191886
 20
-25.07845179084311
 30
0.0
 10
9.132405430120732
 20
-25.33004594525263
 30
0.0
 10
9.188673587558542
 20
-25.74535293902
 30
0.0
 10
9.219785452278938
 20
-26.27956916232508
 30
0.0
 10
9.212938294967179
 20
-26.97219754350343
 30
0.0
 10
9.144637651465205
 20
-27.78742876395326
 30
0.0
 10
9.006407185236913
 20
-28.67827216058865
 30
0.0
 10
8.734598911100765
 20
-29.8774141112952
 30
0.0
 10
8.291177164485475
 20
-31.28684300014504
 30
0.0
 10
7.754286483492647
 20
-32.5780471259567
 30
0.0
 10
7.236025477232686
 20
-33.60561616990922
 30
0.0
 10
6.91687535203305
 20
-34.18139705630596
 30
0.0
 10
6.834785283610998
 20
-34.32616655158182
 30
0.0
  0
ARC
  5
95
330
1F
100
AcDbEntity
  8
0
  6
Continuous
 62
     7
370
    25
100
AcDbCircle
 10
11.997919622
 20
-24.4721215038
 30
0.0
 40
3.000000000000001
100
AcDbArc
 50
125.4943277663
 51
188.2408461472
  0
ARC
  5
96
330
1F
100
AcDbEntity
  8
0
  6
Continuous
 62
     7
370
    25
100
AcDbCircle
 10
11.0039005782
 20
-24.9348947906
 30
0.0
 40
3.000000000000004
100
AcDbArc
 50
41.6885502682
 51
104.4350686491
  0
SPLINE
  5
97
330
1F
100
AcDbEntity
  8
0
  6
Continuous
 62
     7
370
    25
100
AcDbSpline
210
0.0
220
0.0
230
1.0
 70
     8
 71
     4
 72
    20
 73
    15
 74
     0
 42
0.00000001
 43
0.00000001
 40
0.0
 40
0.0
 40
0.0
 40
0.0
 40
0.0
 40
0.005376747431688
 40
0.0150836867376063
 40
0.0285318185596563
 40
0.0466101376019233
 40
0.0648548474003067
 40
0.0921105229977818
 40
0.1194761732733577
 40
0.1468424933791879
 40
0.2015749542014538
 40
0.2563073451642944
 40
0.2748263522575745
 40
0.2748263522575745
 40
0.2748263522575745
 40
0.2748263522575745
 40
0.2748263522575745
 10
13.24421389024028
 20
-22.93965138097121
 30
0.0
 10
13.26976517913581
 20
-22.98069332600696
 30
0.0
 10
13.34558062421257
 20
-23.09306278071583
 30
0.0
 10
13.5050493585409
 20
-23.29432760042461
 30
0.0
 10
13.78664221068489
 20
-23.60473293258717
 30
0.0
 10
14.17542444971341
 20
-23.97243293528597
 30
0.0
 10
14.70986727662164
 20
-24.41305956038177
 30
0.0
 10
15.37769166382576
 20
-24.88558205567098
 30
0.0
 10
16.14839440431789
 20
-25.35326453868751
 30
0.0
 10
17.24101134906712
 20
-25.91718773193285
 30
0.0
 10
18.60502367481095
 20
-26.48515165095834
 30
0.0
 10
19.93873314720347
 20
-26.9054833452474
 30
0.0
 10
21.05870292549176
 20
-27.17036131997049
 30
0.0
 10
21.70476712322573
 20
-27.29677918082087
 30
0.0
 10
21.86839616141478
 20
-27.32715223611495
 30
0.0
  0
ARC
  5
98
330
1F
100
AcDbEntity
  8
0
  6
Continuous
 62
     7
370
    25
100
AcDbCircle
 10
0.0
 20
0.0
 30
0.0
 40
35.0
100
AcDbArc
 50
308.6683401019
 51
311.2610563089
  0
SPLINE
  5
99
330
1F
100
AcDbEntity
  8
0
  6
Continuous
 62
     7
370
    25
100
AcDbSpline
210
0.0
220
0.0
230
1.0
 70
     8
 71
     4
 72
    20
 73
    15
 74
     0
 42
0.00000001
 43
0.00000001
 40
0.0
 40
0.0
 40
0.0
 40
0.0
 40
0.0
 40
0.005376747431688
 40
0.0150836867376063
 40
0.0285318185596563
 40
0.0466101376019233
 40
0.0648548474003067
 40
0.0921105229977818
 40
0.1194761732733577
 40
0.1468424933791879
 40
0.2015749542014538
 40
0.2563073451642944
 40
0.2748263525704481
 40
0.2748263525704481
 40
0.2748263525704481
 40
0.2748263525704481
 40
0.2748263525704481
 10
20.27031644613824
 20
-17.05142452184997
 30
0.0
 10
20.306258119902
 20
-17.08375880247594
 30
0.0
 10
20.40363909182062
 20
-17.17805526249403
 30
0.0
 10
20.57391807276984
 20
-17.3702605525554
 30
0.0
 10
20.83030122341881
 20
-17.70179288080838
 30
0.0
 10
21.12435300027833
 20
-18.14888176894417
 30
0.0
 10
21.4647373786918
 20
-18.75213912108259
 30
0.0
 10
21.81320289654919
 20
-19.49230038970132
 30
0.0
 10
22.13891349953622
 20
-20.33290863509533
 30
0.0
 10
22.50309160452878
 20
-21.5073001642189
 30
0.0
 10
22.8237915517944
 20
-22.94961226009819
 30
0.0
 10
23.00443264590531
 20
-24.33627317501877
 30
0.0
 10
23.06938997066956
 20
-25.48530457435412
 30
0.0
 10
23.08088829782406
 20
-26.14352051158705
 30
0.0
 10
23.0821809608101
 20
-26.30993960640001
 30
0.0
  0
ARC
  5
9A
330
1F
100
AcDbEntity
  8
0
  6
Continuous
 62
     7
370
    25
100
AcDbCircle
 10
22.6265639371
 20
-15.1945190958
 30
0.0
 40
3.000000000000004
100
AcDbArc
 50
155.4943277663
 51
218.2408461472
  0
ARC
  5
9B
330
1F
100
AcDbEntity
  8
0
  6
Continuous
 62
     7
370
    25
100
AcDbCircle
 10
21.9971048367
 20
-16.0923020403
 30
0.0
 40
3.000000000000002
100
AcDbArc
 50
71.6885502682
 51
134.4350686491
  0
SPLINE
  5
9C
330
1F
100
AcDbEntity
  8
0
  6
Continuous
 62
     7
370
    25
100
AcDbSpline
210
0.0
220
0.0
230
1.0
 70
     8
 71
     4
 72
    20
 73
    15
 74
     0
 42
0.00000001
 43
0.00000001
 40
0.0
 40
0.0
 40
0.0
 40
0.0
 40
0.0
 40
0.005376747431688
 40
0.0150836867376063
 40
0.0285318185596563
 40
0.0466101376019233
 40
0.0648548474003067
 40
0.0921105229977818
 40
0.1194761732733577
 40
0.1468424933791879
 40
0.2015749542014538
 40
0.2563073451642944
 40
0.2748263522575745
 40
0.2748263522575745
 40
0.2748263522575745
 40
0.2748263522575745
 40
0.2748263522575745
 10
22.93965137258843
 20
-13.24421390475968
 30
0.0
 10
22.98230041038927
 20
-13.2669816273336
 30
0.0
 10
23.1041432391794
 20
-13.32638870718251
 30
0.0
 10
23.34287962407148
 20
-13.42095478677423
 30
0.0
 10
23.74194885363357
 20
-13.54897726382516
 30
0.0
 10
24.26249415052186
 20
-13.67302368761967
 30
0.0
 10
24.94564852804266
 20
-13.78739612508233
 30
0.0
 10
25.7602626602728
 20
-13.86270041626033
 30
0.0
 10
26.66155205381354
 20
-13.88237395721156
 30
0.0
 10
27.88974768119439
 20
-13.82443729597066
 30
0.0
 10
29.35499896587638
 20
-13.63430231540778
 30
0.0
 10
30.72019109738077
 20
-13.3314655044816
 30
0.0
 10
31.8225523642108
 20
-13.00087167035062
 30
0.0
 10
32.44526930234922
 20
-12.78732065047215
 30
0.0
 10
32.60216273386479
 20
-12.73180996885285
 30
0.0
  0
ARC
  5
9D
330
1F
100
AcDbEntity
  8
0
  6
Continuous
 62
     7
370
    25
100
AcDbCircle
 10
0.0
 20
0.0
 30
0.0
 40
35.00000000000001
100
AcDbArc
 50
338.6683401019
 51
341.2610563089
  0
SPLINE
  5
9E
330
1F
100
AcDbEntity
  8
0
  6
Continuous
 62
     7
370
    25
100
AcDbSpline
210
0.0
220
0.0
230
1.0
 70
     8
 71
     4
 72
    20
 73
    15
 74
     0
 42
0.00000001
 43
0.00000001
 40
0.0
 40
0.0
 40
0.0
 40
0.0
 40
0.0
 40
0.005376747431688
 40
0.0150836867376063
 40
0.0285318185596563
 40
0.0466101376019233
 40
0.0648548474003067
 40
0.0921105229977818
 40
0.1194761732733577
 40
0.1468424933791879
 40
0.2015749542014538
 40
0.2563073451642944
 40
0.2748263525704481
 40
0.2748263525704481
 40
0.2748263525704481
 40
0.2748263525704481
 40
0.2748263525704481
 10
26.0803212460302
 20
-4.631808583565846
 30
0.0
 10
26.12761478887715
 20
-4.641840055119152
 30
0.0
 10
26.25909741441292
 20
-4.674812699022457
 30
0.0
 10
26.50266598267617
 20
-4.756127872482747
 30
0.0
 10
26.89046646836696
 20
-4.915051715601146
 30
0.0
 10
27.36866722122314
 20
-5.155216162046717
 30
0.0
 10
27.9650774160498
 20
-5.50746016481158
 30
0.0
 10
28.63693804116656
 20
-5.974225867404027
 30
0.0
 10
29.33931582033228
 20
-6.539358661052391
 30
0.0
 10
30.2418990753197
 20
-7.37432250676637
 30
0.0
 10
31.24078942458371
 20
-8.4630514483506
 30
0.0
 10
32.09055965851147
 20
-9.57361448005134
 30
0.0
 10
32.72133005158685
 20
-10.53622619923961
 30
0.0
 10
33.06039586362014
 20
-11.10050875848185
 30
0.0
 10
33.14472489001106
 20
-11.24398559077168
 30
0.0
  0
CIRCLE
  5
9F
330
1F
100
AcDbEntity
  8
0
  6
Continuous
 62
     7
370
    25
100
AcDbCircle
 10
0.0
 20
0.0
 30
0.0
 40
10.25
  0
ENDSEC
  0
SECTION
  2
OBJECTS
  0
DICTIONARY
  5
C
330
0
100
AcDbDictionary
281
     1
  3
ACAD_GROUP
350
D
  3
ACAD_LAYOUT
350
1A
  3
ACAD_MLINESTYLE
350
17
  3
ACAD_PLOTSETTINGS
350
19
  3
ACAD_PLOTSTYLENAME
350
E
  3
ACAD_SCALELIST
350
47
  3
DWGPROPS
350
A0
  0
DICTIONARY
  5
D
102
{ACAD_REACTORS
330
C
102
}
330
C
100
AcDbDictionary
281
     1
  0
DICTIONARY
  5
1A
102
{ACAD_REACTORS
330
C
102
}
330
C
100
AcDbDictionary
281
     1
  3
Layout1
350
1E
  3
Layout2
350
26
  3
Model
350
22
  0
DICTIONARY
  5
17
102
{ACAD_REACTORS
330
C
102
}
330
C
100
AcDbDictionary
281
     1
  3
Standard
350
18
  0
DICTIONARY
  5
19
102
{ACAD_REACTORS
330
C
102
}
330
C
100
AcDbDictionary
281
     1
  0
ACDBDICTIONARYWDFLT
  5
E
102
{ACAD_REACTORS
330
C
102
}
330
C
100
AcDbDictionary
281
     1
  3
Normal
350
F
100
AcDbDictionaryWithDefault
340
F
  0
DICTIONARY
  5
47
102
{ACAD_REACTORS
330
C
102
}
330
C
100
AcDbDictionary
281
     1
  3
A0
350
48
  3
A1
350
49
  3
A2
350
4A
  3
A3
350
4B
  3
A4
350
4C
  3
A5
350
4D
  3
A6
350
4E
  3
A7
350
4F
  3
A8
350
50
  3
A9
350
51
  3
B0
350
52
  3
B1
350
53
  3
B2
350
54
  3
B3
350
55
  3
B4
350
56
  3
B5
350
57
  3
B6
350
58
  0
XRECORD
  5
A0
102
{ACAD_REACTORS
330
C
102
}
330
C
100
AcDbXrecord
280
     1
  1
DWGPROPS COOKIE
  2

  3

  4

  6

  7

  8
jacob
  9

300
=
301
=
302
=
303
=
304
=
305
=
306
=
307
=
308
=
309
=
 40
0.0
 41
2461180.307890417
 42
2461180.307928565
  1

 90
        0
  0
LAYOUT
  5
1E
102
{ACAD_REACTORS
330
1A
102
}
330
1A
100
AcDbPlotSettings
  1

  2
none_device
  4

  6

 40
0.0
 41
0.0
 42
0.0
 43
0.0
 44
0.0
 45
0.0
 46
0.0
 47
0.0
 48
0.0
 49
0.0
140
0.0
141
0.0
142
1.0
143
1.0
 70
   688
 72
     1
 73
     0
 74
     5
  7

 75
    16
147
1.0
148
0.0
149
0.0
100
AcDbLayout
  1
Layout1
 70
     1
 71
     1
 10
0.0
 20
0.0
 11
420.0
 21
297.0
 12
0.0
 22
0.0
 32
0.0
 14
1.0000000000E+20
 24
1.0000000000E+20
 34
1.0000000000E+20
 15
-1.0000000000E+20
 25
-1.0000000000E+20
 35
-1.0000000000E+20
146
0.0
 13
0.0
 23
0.0
 33
0.0
 16
1.0
 26
0.0
 36
0.0
 17
0.0
 27
1.0
 37
0.0
 76
     0
330
1B
  0
LAYOUT
  5
26
102
{ACAD_REACTORS
330
1A
102
}
330
1A
100
AcDbPlotSettings
  1

  2
none_device
  4

  6

 40
0.0
 41
0.0
 42
0.0
 43
0.0
 44
0.0
 45
0.0
 46
0.0
 47
0.0
 48
0.0
 49
0.0
140
0.0
141
0.0
142
1.0
143
1.0
 70
   688
 72
     1
 73
     0
 74
     5
  7

 75
    16
147
1.0
148
0.0
149
0.0
100
AcDbLayout
  1
Layout2
 70
     1
 71
     2
 10
0.0
 20
0.0
 11
0.0
 21
0.0
 12
0.0
 22
0.0
 32
0.0
 14
0.0
 24
0.0
 34
0.0
 15
0.0
 25
0.0
 35
0.0
146
0.0
 13
0.0
 23
0.0
 33
0.0
 16
1.0
 26
0.0
 36
0.0
 17
0.0
 27
1.0
 37
0.0
 76
     0
330
23
  0
LAYOUT
  5
22
102
{ACAD_REACTORS
330
1A
102
}
330
1A
100
AcDbPlotSettings
  1

  2
none_device
  4
ANSI_A_(11.00_x_8.50_Inches)
  6

 40
6.35
 41
19.05
 42
6.35000508
 43
19.05000254
 44
279.4
 45
215.9
 46
133.34999746
 47
88.89999873
 48
0.0
 49
0.0
140
0.0
141
0.0
142
0.1216033218
143
1.0
 70
  1696
 72
     0
 73
     0
 74
     0
  7

 75
     0
147
0.0179189148
148
-1300.4909072572
149
0.0
100
AcDbLayout
  1
Model
 70
     1
 71
     0
 10
0.0
 20
0.0
 11
420.0
 21
297.0
 12
0.0
 22
0.0
 32
0.0
 14
-34.6002061303
 24
-34.6002061303
 34
0.0
 15
34.6002061303
 25
34.6002061303
 35
0.0
146
0.0
 13
0.0
 23
0.0
 33
0.0
 16
1.0
 26
0.0
 36
0.0
 17
0.0
 27
1.0
 37
0.0
 76
     0
330
1F
331
29
  0
MLINESTYLE
  5
18
102
{ACAD_REACTORS
330
17
102
}
330
17
100
AcDbMlineStyle
  2
Standard
 70
     0
  3

 62
   256
 51
90.0
 52
90.0
 71
     2
 49
0.5
 62
   256
  6
BYLAYER
 49
-0.5
 62
   256
  6
BYLAYER
  0
ACDBPLACEHOLDER
  5
F
102
{ACAD_REACTORS
330
E
102
}
330
E
  0
SCALE
  5
48
102
{ACAD_REACTORS
330
47
102
}
330
47
100
AcDbScale
 70
     0
300
1:1
140
1.0
141
1.0
290
     1
  0
SCALE
  5
49
102
{ACAD_REACTORS
330
47
102
}
330
47
100
AcDbScale
 70
     0
300
1:2
140
1.0
141
2.0
290
     0
  0
SCALE
  5
4A
102
{ACAD_REACTORS
330
47
102
}
330
47
100
AcDbScale
 70
     0
300
1:4
140
1.0
141
4.0
290
     0
  0
SCALE
  5
4B
102
{ACAD_REACTORS
330
47
102
}
330
47
100
AcDbScale
 70
     0
300
1:5
140
1.0
141
5.0
290
     0
  0
SCALE
  5
4C
102
{ACAD_REACTORS
330
47
102
}
330
47
100
AcDbScale
 70
     0
300
1:8
140
1.0
141
8.0
290
     0
  0
SCALE
  5
4D
102
{ACAD_REACTORS
330
47
102
}
330
47
100
AcDbScale
 70
     0
300
1:10
140
1.0
141
10.0
290
     0
  0
SCALE
  5
4E
102
{ACAD_REACTORS
330
47
102
}
330
47
100
AcDbScale
 70
     0
300
1:16
140
1.0
141
16.0
290
     0
  0
SCALE
  5
4F
102
{ACAD_REACTORS
330
47
102
}
330
47
100
AcDbScale
 70
     0
300
1:20
140
1.0
141
20.0
290
     0
  0
SCALE
  5
50
102
{ACAD_REACTORS
330
47
102
}
330
47
100
AcDbScale
 70
     0
300
1:30
140
1.0
141
30.0
290
     0
  0
SCALE
  5
51
102
{ACAD_REACTORS
330
47
102
}
330
47
100
AcDbScale
 70
     0
300
1:40
140
1.0
141
40.0
290
     0
  0
SCALE
  5
52
102
{ACAD_REACTORS
330
47
102
}
330
47
100
AcDbScale
 70
     0
300
1:50
140
1.0
141
50.0
290
     0
  0
SCALE
  5
53
102
{ACAD_REACTORS
330
47
102
}
330
47
100
AcDbScale
 70
     0
300
1:100
140
1.0
141
100.0
290
     0
  0
SCALE
  5
54
102
{ACAD_REACTORS
330
47
102
}
330
47
100
AcDbScale
 70
     0
300
2:1
140
2.0
141
1.0
290
     0
  0
SCALE
  5
55
102
{ACAD_REACTORS
330
47
102
}
330
47
100
AcDbScale
 70
     0
300
4:1
140
4.0
141
1.0
290
     0
  0
SCALE
  5
56
102
{ACAD_REACTORS
330
47
102
}
330
47
100
AcDbScale
 70
     0
300
8:1
140
8.0
141
1.0
290
     0
  0
SCALE
  5
57
102
{ACAD_REACTORS
330
47
102
}
330
47
100
AcDbScale
 70
     0
300
10:1
140
10.0
141
1.0
290
     0
  0
SCALE
  5
58
102
{ACAD_REACTORS
330
47
102
}
330
47
100
AcDbScale
 70
     0
300
100:1
140
100.0
141
1.0
290
     0
  0
ENDSEC
  0
EOF
